<svg width="218" height="54" viewBox="0 0 218 54" fill="none" xmlns="http://www.w3.org/2000/svg">
<path d="M27.9577 8.64002C20.2327 8.63602 12.1727 10.376 4.03768 12.633C3.00468 12.841 1.99668 13.517 1.46368 14.353C0.973684 15.141 0.795684 15.932 0.642684 16.761C-0.147316 21.189 -0.0513159 25.537 0.112684 30.355C0.148684 31.458 0.312684 32.765 0.827684 33.56C1.36568 34.363 2.28768 34.873 3.38868 35.04C4.79529 35.2463 6.2063 35.4214 7.62068 35.565L7.30868 44.263C7.26068 44.955 7.59868 45.53 8.01868 45.861C8.39468 46.147 8.81368 46.274 9.24368 46.306C10.1037 46.371 11.1127 46.003 11.6137 45.049C13.8087 40.825 15.1857 38.96 17.9307 36.154C25.0887 36.33 31.3377 35.932 38.4127 35.409C40.9137 35.344 42.6307 33.299 43.0847 31.666C44.4417 27.434 44.6527 22.21 44.7967 16.929C44.8577 14.836 44.1317 12.781 42.8467 11.695C41.6247 10.704 40.1447 10.345 38.7887 9.97702C35.0217 9.12402 31.2537 8.66602 27.9577 8.64002ZM38.2477 11.95C39.6057 12.319 40.8027 12.674 41.5577 13.287C42.8177 14.626 42.7757 15.517 42.7577 16.962C42.6157 22.084 42.3697 27.055 41.2137 30.822C40.7157 32.227 39.8477 33.227 38.2077 33.378C30.9997 33.911 24.7457 34.323 17.5007 34.117C17.3596 34.1125 17.2191 34.137 17.0879 34.1889C16.9566 34.2409 16.8375 34.3192 16.7377 34.419C13.6937 37.493 12.1367 39.629 9.81668 44.095C9.76268 44.197 9.64568 44.259 9.50168 44.27C9.40468 44.265 9.36568 44.19 9.35968 44.122L9.67368 34.69C9.69268 34.181 9.27268 33.695 8.76668 33.64C7.0748 33.4784 5.38753 33.2717 3.70668 33.02C2.98068 32.909 2.71268 32.71 2.51368 32.414C2.16768 31.589 2.17568 31.079 2.14868 30.286C1.98668 25.511 1.90668 21.338 2.63968 17.186C2.70768 16.572 2.93768 15.944 3.18168 15.419C3.58568 14.787 4.20468 14.694 4.82568 14.522C12.7817 12.325 20.5657 10.682 27.8937 10.677C31.4857 10.807 35.2577 11.167 38.2477 11.95ZM10.7687 20.04C9.67268 21.353 9.78168 23.136 10.6287 24.33C11.0707 24.955 11.7607 25.458 12.6007 25.572C13.6917 25.662 14.3837 25.22 15.1307 24.712C16.4837 23.536 16.6207 21.484 15.5917 20.002C15.0677 19.247 14.2297 18.794 13.3737 18.762C12.2017 18.774 11.4057 19.297 10.7687 20.039V20.04ZM22.6247 18.968C21.5327 19.003 20.6497 19.759 20.1107 20.575C19.4937 21.508 19.1337 22.676 19.6327 23.821C20.5927 26.024 23.9097 25.997 25.2327 23.758C25.8427 22.726 25.6867 21.553 25.2327 20.702C24.7807 19.852 24.0967 19.159 23.1017 19C22.9441 18.9741 22.7843 18.9634 22.6247 18.968ZM32.2497 19.175C31.9097 19.167 31.5597 19.199 31.2317 19.286C29.9197 19.636 28.8027 20.99 28.9717 22.723C29.0577 23.595 29.4587 24.445 30.1817 25.031C30.9047 25.616 31.9547 25.878 33.0617 25.651C34.3337 25.391 35.1217 24.366 35.3847 23.376C35.6477 22.386 35.5817 21.377 34.9707 20.559C34.6528 20.1363 34.2424 19.7918 33.771 19.5519C33.2996 19.3121 32.7796 19.1831 32.2507 19.175H32.2497ZM13.2847 20.798C13.5297 20.8 13.7227 20.878 13.9217 21.164C14.3667 21.806 14.2427 22.779 13.7937 23.169C13.3467 23.559 13.0677 23.593 12.8717 23.567C12.6757 23.54 12.4767 23.405 12.2987 23.153C11.9587 22.673 11.8587 21.897 12.3057 21.343C12.5437 21.027 12.9807 20.83 13.2857 20.798H13.2847ZM22.7677 21.021C22.8057 21.027 23.2317 21.274 23.4357 21.657C23.6397 22.04 23.6777 22.396 23.4837 22.723C22.9067 23.699 21.6797 23.435 21.4937 23.01C21.4237 22.848 21.4767 22.197 21.8137 21.69C22.1487 21.181 22.5707 20.99 22.7677 21.02V21.021ZM33.3317 21.769C33.3937 21.852 33.5447 22.409 33.4277 22.851C33.3097 23.293 33.1177 23.566 32.6477 23.662C32.0457 23.786 31.7077 23.662 31.4547 23.455C31.2007 23.25 31.0297 22.903 30.9927 22.532C30.9027 21.612 31.2327 21.399 31.7567 21.259C32.3667 21.109 33.0567 21.371 33.3317 21.769Z" fill="#F88787"/>
<path d="M62.56 41V13H74.12C76.8133 13 78.9733 13.76 80.6 15.28C82.2267 16.8 83.04 18.8 83.04 21.28C83.04 23.76 82.2267 25.76 80.6 27.28C78.9733 28.8 76.8133 29.56 74.12 29.56H65.64V41H62.56ZM73.76 15.72H65.64V26.92H73.76C75.68 26.92 77.1867 26.4133 78.28 25.4C79.4 24.3867 79.96 23.0133 79.96 21.28C79.96 19.5733 79.4 18.2267 78.28 17.24C77.1867 16.2267 75.68 15.72 73.76 15.72ZM88.6519 41V13H91.7319V41H88.6519ZM99.29 41H95.69L106.49 26.52L96.37 13H100.05L108.33 24.12L116.53 13H120.13L110.09 26.44L120.97 41H117.25L108.29 28.8L99.29 41ZM124.982 41V13H144.102V15.68H128.062V25.52H139.182V28.2H128.062V38.32H144.262V41H124.982ZM149.748 41V13H152.828V38.28H168.628V41H149.748ZM171.604 36.64L173.484 34.4C175.164 35.9733 176.738 37.0933 178.204 37.76C179.698 38.4267 181.351 38.76 183.164 38.76C185.324 38.76 187.111 38.2267 188.524 37.16C189.938 36.0667 190.644 34.72 190.644 33.12C190.644 31.7333 190.164 30.6667 189.204 29.92C188.271 29.1733 186.671 28.6 184.404 28.2L179.884 27.44C177.324 26.9867 175.444 26.2133 174.244 25.12C173.071 24 172.484 22.5067 172.484 20.64C172.484 18.2933 173.378 16.3733 175.164 14.88C176.951 13.3867 179.258 12.64 182.084 12.64C184.164 12.64 186.098 12.9333 187.884 13.52C189.671 14.08 191.431 14.9733 193.164 16.2L191.564 18.6C190.124 17.5333 188.591 16.7067 186.964 16.12C185.364 15.5333 183.751 15.24 182.124 15.24C180.178 15.24 178.578 15.7333 177.324 16.72C176.071 17.68 175.444 18.88 175.444 20.32C175.444 21.5467 175.858 22.5067 176.684 23.2C177.511 23.8933 178.858 24.3867 180.724 24.68L185.204 25.44C188.164 25.9733 190.324 26.84 191.684 28.04C193.044 29.24 193.724 30.88 193.724 32.96C193.724 34.16 193.458 35.28 192.924 36.32C192.391 37.36 191.644 38.2533 190.684 39C189.751 39.7467 188.631 40.3333 187.324 40.76C186.018 41.1867 184.604 41.4 183.084 41.4C180.898 41.4 178.858 41.0133 176.964 40.24C175.098 39.44 173.311 38.24 171.604 36.64Z" fill="black"/>
</svg>
